<svg id="visual" viewBox="0 0 960 540" width="960" height="540" xmlns="http://www.w3.org/2000/svg" xmlns:xlink="http://www.w3.org/1999/xlink" version="1.1"><rect x="0" y="0" width="960" height="540" fill="#ffffff"></rect><path d="M0 308L22.8 303.3C45.7 298.7 91.3 289.3 137 293.8C182.7 298.3 228.3 316.7 274 331C319.7 345.3 365.3 355.7 411.2 351C457 346.3 503 326.7 548.8 331.7C594.7 336.7 640.3 366.3 686 386.5C731.7 406.7 777.3 417.3 823 417.8C868.7 418.3 914.3 408.7 937.2 403.8L960 399L960 0L937.2 0C914.3 0 868.7 0 823 0C777.3 0 731.7 0 686 0C640.3 0 594.7 0 548.8 0C503 0 457 0 411.2 0C365.3 0 319.7 0 274 0C228.3 0 182.7 0 137 0C91.3 0 45.7 0 22.8 0L0 0Z" fill="#face69"></path><path d="M0 292L22.8 281C45.7 270 91.3 248 137 242.5C182.7 237 228.3 248 274 258.3C319.7 268.7 365.3 278.3 411.2 280.5C457 282.7 503 277.3 548.8 278C594.7 278.7 640.3 285.3 686 278.8C731.7 272.3 777.3 252.7 823 238.3C868.7 224 914.3 215 937.2 210.5L960 206L960 0L937.2 0C914.3 0 868.7 0 823 0C777.3 0 731.7 0 686 0C640.3 0 594.7 0 548.8 0C503 0 457 0 411.2 0C365.3 0 319.7 0 274 0C228.3 0 182.7 0 137 0C91.3 0 45.7 0 22.8 0L0 0Z" fill="#e0b448"></path><path d="M0 90L22.8 105.3C45.7 120.7 91.3 151.3 137 159.7C182.7 168 228.3 154 274 143.7C319.7 133.3 365.3 126.7 411.2 116C457 105.3 503 90.7 548.8 102.3C594.7 114 640.3 152 686 168.8C731.7 185.7 777.3 181.3 823 163.2C868.7 145 914.3 113 937.2 97L960 81L960 0L937.2 0C914.3 0 868.7 0 823 0C777.3 0 731.7 0 686 0C640.3 0 594.7 0 548.8 0C503 0 457 0 411.2 0C365.3 0 319.7 0 274 0C228.3 0 182.7 0 137 0C91.3 0 45.7 0 22.8 0L0 0Z" fill="#c79a24"></path></svg>